<?xml version="1.0" encoding="UTF-8"?><svg id="_Слой_2" xmlns="http://www.w3.org/2000/svg" width="30" height="27.46" viewBox="0 0 30 27.46"><defs><style>.cls-1{fill:#6c6c6c;}</style></defs><g id="sets"><g id="abc"><path class="cls-1" d="M14.42,12.02l-7.66-7.67.96-.96,6.71,6.71L24.51,0l.96.96-11.05,11.06Z"/><path class="cls-1" d="M17.13,27.33h-4.74v-6.78h4.74c1.87,0,3.39,1.52,3.39,3.39s-1.52,3.39-3.39,3.39ZM13.74,25.97h3.39c1.12,0,2.03-.92,2.03-2.03s-.91-2.03-2.03-2.03h-3.39v4.07Z"/><path class="cls-1" d="M16.45,21.91v-1.36c1.12,0,2.03-.92,2.03-2.03s-.91-2.03-2.03-2.03h-2.71v4.75h-1.35v-6.1h4.06c1.87,0,3.39,1.52,3.39,3.39s-1.52,3.39-3.39,3.39Z"/><path class="cls-1" d="M27.29,27.33h-2.71c-1.49,0-2.71-1.22-2.71-2.71v-6.78c0-1.49,1.22-2.71,2.71-2.71h2.71c1.49,0,2.71,1.22,2.71,2.71v1.36h-1.35v-1.36c0-.75-.61-1.36-1.35-1.36h-2.71c-.75,0-1.35.61-1.35,1.36v6.78c0,.75.61,1.36,1.35,1.36h2.71c.74,0,1.35-.61,1.35-1.36v-1.36h1.35v1.36c0,1.49-1.22,2.71-2.71,2.71Z"/><path class="cls-1" d="M2.4,22.58h6.44v1.36H2.4v-1.36Z"/><path class="cls-1" d="M9.99,27.46l-4.38-9.64L1.24,27.46l-1.24-.56,5.61-12.36,5.61,12.36-1.24.56Z"/></g></g></svg>