<?xml version="1.0" encoding="UTF-8"?><svg id="_Слой_2" xmlns="http://www.w3.org/2000/svg" width="30" height="29.93" viewBox="0 0 30 29.93"><defs><style>.cls-1{fill:#6c6c6c;}</style></defs><g id="sets"><path id="arrows" class="cls-1" d="M27.85,0h-10.77c0,2.35,1.89,4.24,4.23,4.23h1.43l-7.74,7.74-7.74-7.74h1.43C11.02,4.23,12.91,2.34,12.9,0H2.12C.96,0,.02.94,0,2.12l.03,10.77c2.35,0,4.24-1.89,4.23-4.23v-1.43l7.74,7.74-7.74,7.74v-1.43c0-2.35-1.89-4.24-4.23-4.23v10.74c0,1.16.94,2.1,2.12,2.12h10.77c0-2.35-1.89-4.24-4.23-4.23h-1.43l7.74-7.74,7.74,7.74h-1.43c-2.35,0-4.24,1.89-4.23,4.23h10.77c1.16,0,2.11-.94,2.12-2.12v-10.77c-2.35,0-4.24,1.89-4.23,4.23v1.43l-7.76-7.76,7.74-7.74v1.43c0,2.35,1.89,4.24,4.23,4.23V2.07C29.98.94,29.02-.02,27.85,0Z"/></g></svg>