<?xml version="1.0" encoding="UTF-8"?><svg id="_Слой_2" xmlns="http://www.w3.org/2000/svg" width="30" height="30" viewBox="0 0 30 30"><defs><style>.cls-1{fill:#ababab;}</style></defs><g id="sets"><g id="autor"><path class="cls-1" d="M15,30c-4.01,0-7.77-1.56-10.61-4.39C1.56,22.77,0,19.01,0,15S1.56,7.23,4.39,4.39C7.23,1.56,10.99,0,15,0s7.77,1.56,10.61,4.39c2.83,2.83,4.39,6.6,4.39,10.61s-1.56,7.77-4.39,10.61c-2.83,2.83-6.6,4.39-10.61,4.39ZM15,3.52c-6.33,0-11.48,5.15-11.48,11.48s5.15,11.48,11.48,11.48,11.48-5.15,11.48-11.48S21.33,3.52,15,3.52Z"/><path class="cls-1" d="M15.23,23.2c-4.52,0-8.2-3.68-8.2-8.2s3.68-8.2,8.2-8.2c1.64,0,3.23.48,4.59,1.4.8.54,1.02,1.64.47,2.44-.54.8-1.64,1.02-2.44.47-.77-.52-1.68-.8-2.62-.8-2.58,0-4.69,2.1-4.69,4.69s2.1,4.69,4.69,4.69c.95,0,1.75-.28,2.37-.83.12-.11.24-.23.35-.36.62-.74,1.73-.84,2.48-.22.74.62.84,1.73.22,2.48-.22.26-.45.5-.7.72-1.27,1.13-2.89,1.72-4.71,1.72Z"/></g></g></svg>