<?xml version="1.0" encoding="UTF-8"?><svg id="_Слой_2" xmlns="http://www.w3.org/2000/svg" width="26.4" height="30" viewBox="0 0 26.4 30"><defs><style>.cls-1{fill:#656565;}</style></defs><g id="sets"><path id="basket" class="cls-1" d="M10.64,0c-.18,0-.35.04-.51.12-.16.08-.29.21-.4.36-.1.15-.17.33-.19.51-.02.18,0,.37.05.55h-3.24c-1.35,0-2.61.71-3.35,1.88l-1.73,2.73h-.14c-.15,0-.29.03-.43.08-.14.06-.26.14-.36.25s-.19.24-.24.38c-.06.14-.09.29-.09.45s.03.3.09.45c.06.14.14.27.24.38s.23.19.36.25c.14.06.28.09.43.08h.56c.09.01.19.02.28,0l1.81,17.75c.22,2.14,1.96,3.78,4.01,3.78h10.85c2.05,0,3.79-1.64,4.01-3.78l1.81-17.75c.09.01.19,0,.28,0h.57c.15,0,.29-.03.43-.08.14-.06.26-.14.36-.25s.19-.24.24-.38c.06-.14.09-.29.09-.45s-.03-.3-.09-.45c-.06-.14-.14-.27-.24-.38s-.23-.19-.36-.25c-.14-.06-.28-.09-.43-.08h-.14l-1.73-2.73c-.75-1.18-2.01-1.88-3.35-1.88h-3.24c.06-.18.08-.36.05-.55-.02-.18-.09-.36-.19-.51-.1-.15-.24-.27-.4-.36C16.12.04,15.94,0,15.77,0h-5.13ZM6.35,3.85h13.71c.61,0,1.18.32,1.52.86l.92,1.45H3.9l.92-1.45h0c.34-.54.91-.86,1.52-.86ZM4.17,8.46h18.07l-1.79,17.51c-.1.99-.88,1.72-1.82,1.72H7.78c-.95,0-1.72-.73-1.82-1.72l-1.79-17.51Z"/></g></svg>