<?xml version="1.0" encoding="UTF-8"?><svg id="_Слой_2" xmlns="http://www.w3.org/2000/svg" width="30" height="30" viewBox="0 0 30 30"><defs><style>.cls-1{fill:#ababab;fill-rule:evenodd;}</style></defs><g id="sets"><path id="briefcase" class="cls-1" d="M7.5,4.5c0-2.49,2.01-4.5,4.5-4.5h6c2.49,0,4.5,2.01,4.5,4.5v1.5h3c2.49,0,4.5,2.01,4.5,4.5v7.85s0,.05,0,.07v7.08c0,2.49-2.01,4.5-4.5,4.5H4.5C2.02,30,0,27.98,0,25.5v-7.08s0-.05,0-.07v-7.85C0,8.01,2.02,6,4.5,6h3v-1.5ZM4.5,9c-.83,0-1.5.67-1.5,1.5v6.86c3.74,1.39,7.78,2.14,12,2.14s8.26-.76,12-2.14v-6.86c0-.83-.67-1.5-1.5-1.5H4.5ZM19.5,6h-9v-1.5c0-.83.67-1.5,1.5-1.5h6c.83,0,1.5.67,1.5,1.5v1.5ZM27,20.54c-3.77,1.27-7.81,1.96-12,1.96s-8.23-.69-12-1.96v4.96c0,.83.67,1.5,1.5,1.5h21c.83,0,1.5-.67,1.5-1.5v-4.96ZM13.5,16.5c0-.83.67-1.5,1.5-1.5h.01c.83,0,1.5.67,1.5,1.5s-.67,1.5-1.5,1.5h-.01c-.83,0-1.5-.67-1.5-1.5Z"/></g></svg>