<?xml version="1.0" encoding="UTF-8"?><svg id="_Слой_2" xmlns="http://www.w3.org/2000/svg" width="28.07" height="30" viewBox="0 0 28.07 30"><defs><style>.cls-1{fill:#6c6c6c;fill-rule:evenodd;}</style></defs><g id="sets"><path id="calendar" class="cls-1" d="M7.72,0c.78,0,1.4.64,1.4,1.43v1.43h9.82v-1.43c0-.79.63-1.43,1.4-1.43s1.4.64,1.4,1.43v1.46c3.55.36,6.32,3.4,6.32,7.11v12.86c0,3.94-3.14,7.14-7.02,7.14H7.02c-3.88,0-7.02-3.2-7.02-7.14v-12.86C0,6.3,2.77,3.25,6.32,2.89v-1.46c0-.79.63-1.43,1.4-1.43ZM3.05,8.57h21.98c-.58-1.66-2.14-2.86-3.97-2.86H7.02c-1.83,0-3.39,1.19-3.97,2.86ZM25.26,11.43H2.81v11.43c0,2.37,1.89,4.29,4.21,4.29h14.04c2.33,0,4.21-1.92,4.21-4.29v-11.43ZM5.61,15.71c0-.79.63-1.43,1.4-1.43h14.04c.78,0,1.4.64,1.4,1.43s-.63,1.43-1.4,1.43H7.02c-.78,0-1.4-.64-1.4-1.43Z"/></g></svg>