<?xml version="1.0" encoding="UTF-8"?><svg id="_Слой_2" xmlns="http://www.w3.org/2000/svg" width="30" height="29.61" viewBox="0 0 30 29.61"><defs><style>.cls-1{fill:#6c6c6c;}</style></defs><g id="sets"><path id="cancel" class="cls-1" d="M15,0C6.73,0,0,6.64,0,14.8s6.73,14.8,15,14.8,15-6.64,15-14.8S23.27,0,15,0ZM3.12,14.8c0-2.67.92-5.13,2.46-7.09l16.62,16.37c-2,1.5-4.49,2.41-7.2,2.41-6.55,0-11.88-5.24-11.88-11.69ZM24.42,21.9L7.8,5.53c2-1.5,4.49-2.41,7.2-2.41,6.55,0,11.88,5.24,11.88,11.69,0,2.67-.93,5.13-2.46,7.1Z"/></g></svg>