<?xml version="1.0" encoding="UTF-8"?><svg id="_Слой_2" xmlns="http://www.w3.org/2000/svg" width="30" height="30" viewBox="0 0 30 30"><defs><style>.cls-1{fill:#6c6c6c;}</style></defs><g id="sets"><path id="choose" class="cls-1" d="M6.25,0c-1.66,0-3.25.66-4.42,1.83C.66,3,0,4.59,0,6.25v17.5c0,1.66.66,3.25,1.83,4.42,1.17,1.17,2.76,1.83,4.42,1.83h9.18c1.66,0,3.25-.66,4.42-1.83l8.32-8.32c1.17-1.17,1.83-2.76,1.83-4.42V6.25c0-1.66-.66-3.25-1.83-4.42-1.17-1.17-2.76-1.83-4.42-1.83H6.25ZM2.5,6.25c0-.99.4-1.95,1.1-2.65.7-.7,1.66-1.1,2.65-1.1h17.5c.99,0,1.95.4,2.65,1.1.7.7,1.1,1.66,1.1,2.65v8.75h-6.25c-1.66,0-3.25.66-4.42,1.83-1.17,1.17-1.83,2.76-1.83,4.42v6.25H6.25c-.99,0-1.95-.4-2.65-1.1-.7-.7-1.1-1.66-1.1-2.65V6.25ZM17.5,26.88v-5.63c0-.99.4-1.95,1.1-2.65s1.66-1.1,2.65-1.1h5.63c-.14.21-.3.4-.48.58l-8.32,8.32c-.18.18-.37.34-.58.48"/></g></svg>