<?xml version="1.0" encoding="UTF-8"?><svg id="_Слой_2" xmlns="http://www.w3.org/2000/svg" width="30" height="30" viewBox="0 0 30 30"><defs><style>.cls-1{fill:#6c6c6c;fill-rule:evenodd;}</style></defs><g id="sets"><path id="close" class="cls-1" d="M.63.63C1.46-.21,2.82-.21,3.66.63l11.34,11.34L26.34.63c.84-.84,2.19-.84,3.03,0,.84.84.84,2.19,0,3.03l-11.34,11.34,11.34,11.34c.84.84.84,2.19,0,3.03-.84.84-2.19.84-3.03,0l-11.34-11.34L3.66,29.37c-.84.84-2.19.84-3.03,0-.84-.84-.84-2.19,0-3.03l11.34-11.34L.63,3.66C-.21,2.82-.21,1.46.63.63Z"/></g></svg>