<?xml version="1.0" encoding="UTF-8"?><svg id="_Слой_2" xmlns="http://www.w3.org/2000/svg" width="30" height="24.55" viewBox="0 0 30 24.55"><defs><style>.cls-1{fill:#ababab;fill-rule:evenodd;}</style></defs><g id="sets"><path id="comunity" class="cls-1" d="M15,2.73c-1.51,0-2.73,1.22-2.73,2.73s1.22,2.73,2.73,2.73,2.73-1.22,2.73-2.73-1.22-2.73-2.73-2.73ZM9.55,5.45c0-3.01,2.44-5.45,5.45-5.45s5.45,2.44,5.45,5.45-2.44,5.45-5.45,5.45-5.45-2.44-5.45-5.45ZM5.45,8.18c-.75,0-1.36.61-1.36,1.36s.61,1.36,1.36,1.36,1.36-.61,1.36-1.36-.61-1.36-1.36-1.36ZM1.36,9.55c0-2.26,1.83-4.09,4.09-4.09s4.09,1.83,4.09,4.09-1.83,4.09-4.09,4.09-4.09-1.83-4.09-4.09ZM24.55,8.18c-.75,0-1.36.61-1.36,1.36s.61,1.36,1.36,1.36,1.36-.61,1.36-1.36-.61-1.36-1.36-1.36ZM20.45,9.55c0-2.26,1.83-4.09,4.09-4.09s4.09,1.83,4.09,4.09-1.83,4.09-4.09,4.09-4.09-1.83-4.09-4.09ZM15,15c-2.29,0-4.26,1.42-5.07,3.43-.25.62-.39,1.31-.39,2.03v1.36h10.91v-1.36c0-.72-.14-1.4-.39-2.03-.81-2.01-2.77-3.43-5.07-3.43ZM23.18,21.82h4.09v-1.36c0-1.51-1.22-2.73-2.73-2.73-.62,0-1.19.21-1.65.56.19.69.29,1.42.29,2.17v1.36ZM21.72,15.79c-1.48-2.12-3.94-3.52-6.72-3.52s-5.24,1.39-6.72,3.52c-.82-.5-1.79-.79-2.82-.79-3.01,0-5.45,2.44-5.45,5.45v2.73c0,.75.61,1.36,1.36,1.36h27.27c.75,0,1.36-.61,1.36-1.36v-2.73c0-3.01-2.44-5.45-5.45-5.45-1.03,0-2,.29-2.82.79ZM7.11,18.29c-.46-.35-1.03-.56-1.65-.56-1.51,0-2.73,1.22-2.73,2.73v1.36h4.09v-1.36c0-.75.1-1.48.29-2.17Z"/></g></svg>