<?xml version="1.0" encoding="UTF-8"?><svg id="_Слой_2" xmlns="http://www.w3.org/2000/svg" width="26.83" height="30" viewBox="0 0 26.83 30"><defs><style>.cls-1{fill:#6c6c6c;fill-rule:evenodd;}</style></defs><g id="sets"><path id="cut" class="cls-1" d="M4.83,4.15c-.22-.32-.38-.68-.47-1.06-.08-.38-.09-.78-.03-1.16.07-.39.21-.75.42-1.08.21-.33.48-.62.8-.84l7.86,11.22L21.27,0c.32.22.59.51.8.84.21.33.35.7.42,1.08.07.39.06.78-.03,1.16-.08.38-.24.74-.47,1.06l-6.77,9.67,3.31,4.73c1.34-.57,2.83-.62,4.21-.17,1.38.46,2.54,1.4,3.27,2.66.73,1.25.98,2.73.69,4.15-.28,1.42-1.07,2.7-2.22,3.58-1.15.88-2.59,1.31-4.03,1.21-1.45-.1-2.81-.72-3.83-1.76-1.02-1.03-1.63-2.4-1.71-3.85-.08-1.45.36-2.88,1.26-4.02l-2.76-3.94-2.76,3.94c.89,1.14,1.34,2.57,1.26,4.02-.08,1.45-.69,2.82-1.71,3.85-1.02,1.03-2.38,1.66-3.83,1.76-1.45.1-2.88-.33-4.03-1.21-1.15-.88-1.94-2.15-2.22-3.58-.28-1.42-.03-2.9.69-4.15.73-1.25,1.89-2.2,3.27-2.66,1.38-.46,2.87-.4,4.21.17l3.31-4.73L4.83,4.15ZM5.96,21.06c-.79,0-1.55.31-2.11.87-.56.56-.87,1.32-.87,2.11s.31,1.55.87,2.11c.56.56,1.32.87,2.11.87s1.55-.31,2.11-.87c.56-.56.87-1.32.87-2.11s-.31-1.55-.87-2.11c-.56-.56-1.32-.87-2.11-.87ZM20.87,21.06c-.79,0-1.55.31-2.11.87s-.87,1.32-.87,2.11.31,1.55.87,2.11c.56.56,1.32.87,2.11.87s1.55-.31,2.11-.87c.56-.56.87-1.32.87-2.11s-.31-1.55-.87-2.11c-.56-.56-1.32-.87-2.11-.87Z"/></g></svg>