<?xml version="1.0" encoding="UTF-8"?><svg id="_Слой_2" xmlns="http://www.w3.org/2000/svg" width="30" height="26.05" viewBox="0 0 30 26.05"><defs><style>.cls-1{fill:#ababab;}</style></defs><g id="sets"><path id="favorites" class="cls-1" d="M15,26.05c-.4,0-.78-.16-1.06-.44L2.42,14.08c-1.56-1.56-2.42-3.63-2.42-5.83S.86,3.97,2.42,2.42C5.63-.8,10.87-.8,14.08,2.42l.92.92.92-.92c1.56-1.56,3.63-2.42,5.83-2.42s4.28.86,5.83,2.42c1.56,1.56,2.42,3.63,2.42,5.83s-.86,4.28-2.42,5.83l-11.52,11.52c-.28.28-.66.44-1.06.44ZM8.25,3c-1.34,0-2.69.51-3.71,1.54-.99.99-1.54,2.31-1.54,3.71s.55,2.72,1.54,3.71l10.46,10.46,10.46-10.46c.99-.99,1.54-2.31,1.54-3.71s-.55-2.72-1.54-3.71c-1.98-1.98-5.44-1.98-7.43,0l-1.98,1.98c-.56.56-1.56.56-2.12,0l-1.98-1.98c-1.02-1.02-2.37-1.54-3.71-1.54Z"/></g></svg>