<?xml version="1.0" encoding="UTF-8"?><svg id="_Слой_2" xmlns="http://www.w3.org/2000/svg" width="30" height="21.43" viewBox="0 0 30 21.43"><defs><style>.cls-1{fill:#ababab;}</style></defs><g id="sets"><g id="integration"><path class="cls-1" d="M16.15,16.22l-2.1,2s.73.36,1.22.56c.47.19,1.22.42,1.22.42v1.58c0,.36.31.65.69.65h2.68c.51,0,.91-.41.88-.89l-.06-.88c-.02-.28.15-.54.42-.64l1.89-.74c.3-.12.65-.05.87.18l.64.64c.38.38,1.03.39,1.41,0l1.73-1.7c.25-.24.26-.63.02-.89l-.98-1.05c-.13-.13-.16-.33-.08-.49l.82-1.82c.14-.31.46-.51.81-.51h.99c.43,0,.78-.33.78-.74v-2.42c0-.41-.35-.74-.78-.74h-1.4c-.16,0-.31-.09-.37-.24l-.84-2.06c-.09-.21-.03-.46.15-.61l.9-.78c.28-.25.3-.67.03-.93l-1.81-1.78c-.38-.37-1-.38-1.39-.02l-.91.84c-.12.11-.29.14-.44.07l-2.17-.99c-.14-.06-.22-.19-.22-.34V.74c0-.41-.35-.74-.78-.74h-2.75c-.37,0-.68.28-.68.64l-.03,1.27c0,.22-.15.42-.36.5l-2.14.84,2.15,2c3.86-1.56,8.22.85,8.7,4.81l.06.49c.14,4.24-4.29,7.26-8.47,5.77l-.29-.1Z"/><path class="cls-1" d="M1.55,12.77c.17.05.35.05.53.05h10.25l-2.79,2.6c-.16.15-.31.33-.39.53-.67,1.77,1.34,3.53,3.2,2.58l.17-.09,7.68-7.26c.27-.25.27-.67,0-.92l-7.78-7.39-.39-.15c-1.69-.64-3.28.79-2.99,2.3.1.52.49.92.88,1.3l2.41,2.36H2.13c-.21,0-.42.01-.62.07-2.02.63-2.02,3.46.04,4.01Z"/></g></g></svg>