<?xml version="1.0" encoding="UTF-8"?><svg id="_Слой_2" xmlns="http://www.w3.org/2000/svg" width="30" height="25.53" viewBox="0 0 30 25.53"><defs><style>.cls-1{fill:#6c6c6c;}</style></defs><g id="sets"><path id="item_back" class="cls-1" d="M13.61,25.53c.93,0,1.63-.7,1.63-1.63v-5.32h.4c5.38,0,8.79,1.36,11.21,5.91.49.89,1.13,1.03,1.71,1.03.75,0,1.43-.67,1.43-1.86,0-10.28-4.36-16.7-14.36-16.7h-.4V1.71c0-.93-.7-1.71-1.66-1.71-.7,0-1.11.35-1.89,1L.71,11.27c-.51.51-.71,1.03-.71,1.5s.19.97.71,1.49l10.98,10.37c.7.6,1.22.9,1.92.9M12.8,22.54c-.08,0-.15-.04-.24-.12L2.66,13.04c-.12-.11-.15-.18-.15-.26s.04-.17.15-.26L12.56,3.01c.06-.07.15-.11.24-.11.03,0,.05,0,.08.01.02,0,.05.02.06.04.02.02.03.04.04.06,0,.02.01.05.01.08v5.52c0,.32.14.46.46.46h1.88c9.55,0,12.41,6.62,12.69,13.19,0,.1-.04.15-.1.15-.07,0-.1-.04-.14-.14-1.59-3.52-5.86-5.79-12.45-5.79h-1.88c-.32,0-.46.14-.46.46v5.38c0,.13-.08.21-.19.21"/></g></svg>