<?xml version="1.0" encoding="UTF-8"?><svg id="_Слой_2" xmlns="http://www.w3.org/2000/svg" width="30" height="25.53" viewBox="0 0 30 25.53"><defs><style>.cls-1{fill:#6c6c6c;}</style></defs><g id="sets"><path id="item_next" class="cls-1" d="M16.39,25.53c.7,0,1.22-.31,1.92-.9l10.98-10.37c.51-.52.71-1.03.71-1.49,0-.47-.19-.99-.71-1.5L18.31,1C17.53.35,17.12,0,16.42,0c-.96,0-1.66.78-1.66,1.71v5.26h-.4C4.36,6.97,0,13.39,0,23.67c0,1.2.68,1.86,1.43,1.86.58,0,1.22-.14,1.71-1.03,2.42-4.55,5.83-5.91,11.21-5.91h.4v5.32c0,.93.7,1.63,1.63,1.63M17.2,22.54c-.11,0-.19-.08-.19-.21v-5.38c0-.32-.14-.46-.46-.46h-1.88c-6.6,0-10.87,2.27-12.45,5.79-.04.1-.07.14-.14.14-.06,0-.1-.06-.1-.15.28-6.57,3.14-13.19,12.69-13.19h1.88c.32,0,.46-.14.46-.46V3.09s0-.05.01-.08c0-.02.02-.05.04-.06.02-.02.04-.03.06-.04.02,0,.05-.01.08-.01.09,0,.18.04.24.11l9.91,9.5c.11.1.15.18.15.26s-.03.15-.15.26l-9.91,9.38c-.08.08-.15.12-.24.12"/></g></svg>