<?xml version="1.0" encoding="UTF-8"?><svg id="_Слой_2" xmlns="http://www.w3.org/2000/svg" width="21.45" height="30" viewBox="0 0 21.45 30"><defs><style>.cls-1{fill:#2c2c2c;}</style></defs><g id="sets"><path id="letter_b" class="cls-1" d="M20.67,17.8c-.52-1.07-1.32-1.94-2.39-2.62-.58-.37-1.28-.63-2.04-.81.32-.13.68-.22.97-.39,1.15-.65,2.03-1.48,2.62-2.49.59-1.03.89-2.16.89-3.4,0-1.4-.24-2.61-.72-3.63-.47-1.02-1.16-1.85-2.08-2.51-.91-.67-2.01-1.17-3.32-1.48-1.29-.32-2.76-.47-4.41-.47H0v30h11.02c2.18,0,4.05-.33,5.6-.99,1.55-.67,2.74-1.66,3.56-2.95.84-1.29,1.26-2.89,1.26-4.8,0-1.24-.26-2.39-.78-3.46ZM10.18,4.12c1.22,0,2.23.14,3.01.43.8.29,1.39.75,1.77,1.38.38.63.58,1.45.58,2.45,0,.91-.21,1.68-.62,2.33-.41.63-1.02,1.12-1.81,1.46-.78.33-1.74.49-2.86.49h-5.07V4.12h5.01ZM15.7,23.7c-.38.69-.97,1.23-1.75,1.63-.78.38-1.76.58-2.93.58h-5.85v-9.46h6.08c1.2,0,2.16.2,2.91.6.74.38,1.28.94,1.63,1.67.34.71.52,1.56.52,2.53s-.2,1.75-.6,2.45Z"/></g></svg>