<?xml version="1.0" encoding="UTF-8"?><svg id="_Слой_2" xmlns="http://www.w3.org/2000/svg" width="25.23" height="30" viewBox="0 0 25.23 30"><defs><style>.cls-1{fill:#2c2c2c;}</style></defs><g id="sets"><g id="letter_s"><path id="letter_s-2" class="cls-1" d="M16.82,22.08c0-.6-.09-1.14-.28-1.6-.17-.47-.49-.9-.94-1.28-.45-.39-1.1-.76-1.93-1.12-.82-.37-1.86-.76-3.13-1.14-1.39-.43-2.67-.9-3.85-1.42-1.16-.53-2.18-1.15-3.05-1.84-.87-.71-1.54-1.52-2.03-2.43-.48-.92-.72-1.99-.72-3.19s.25-2.27.74-3.25c.51-.98,1.22-1.82,2.15-2.53.94-.72,2.04-1.28,3.31-1.66,1.27-.4,2.67-.6,4.21-.6,2.17,0,4.03.4,5.59,1.2,1.58.8,2.79,1.88,3.63,3.23.86,1.35,1.28,2.84,1.28,4.47h-4.99c0-.96-.21-1.81-.62-2.55-.4-.75-1.02-1.34-1.84-1.76-.82-.43-1.85-.64-3.11-.64-1.19,0-2.18.18-2.97.54s-1.38.85-1.76,1.46c-.39.61-.58,1.31-.58,2.09,0,.55.13,1.05.38,1.5.25.44.64.86,1.16,1.24.52.37,1.18.73,1.97,1.06.79.33,1.72.66,2.79.96,1.62.48,3.03,1.02,4.23,1.6,1.2.57,2.21,1.23,3.01,1.97s1.4,1.57,1.8,2.51c.4.92.6,1.97.6,3.15s-.25,2.34-.74,3.33c-.49.98-1.2,1.81-2.13,2.51-.91.68-2.01,1.21-3.29,1.58-1.27.36-2.69.54-4.25.54-1.4,0-2.79-.19-4.15-.56-1.35-.37-2.58-.94-3.69-1.7-1.11-.78-1.99-1.74-2.65-2.89-.66-1.16-.98-2.52-.98-4.07h5.03c0,.95.16,1.76.48,2.43.33.67.8,1.22,1.38,1.64.59.41,1.27.72,2.05.92.79.2,1.63.3,2.53.3,1.18,0,2.16-.17,2.95-.5.8-.33,1.4-.8,1.8-1.4.4-.6.6-1.3.6-2.09Z"/><rect class="cls-1" x="2.98" y="14.17" width="22.25" height="2.34"/></g></g></svg>