<?xml version="1.0" encoding="UTF-8"?><svg id="_Слой_2" xmlns="http://www.w3.org/2000/svg" width="27" height="30" viewBox="0 0 27 30"><defs><style>.cls-1{fill:#6c6c6c;fill-rule:evenodd;}</style></defs><g id="sets"><path id="notification" class="cls-1" d="M9.03,4c.25-2.25,2.16-4,4.47-4s4.22,1.75,4.47,4c3.56,1.68,6.03,5.3,6.03,9.5v4.74c0,.41.16.8.45,1.09l2.11,2.11c.43.43.56,1.07.33,1.63-.23.56-.78.93-1.39.93h-6c0,3.31-2.69,6-6,6s-6-2.69-6-6H1.5c-.61,0-1.15-.37-1.39-.93-.23-.56-.1-1.21.33-1.63l2.11-2.11c.29-.29.45-.68.45-1.09v-4.74c0-4.2,2.47-7.82,6.03-9.5ZM10.5,24c0,1.66,1.34,3,3,3s3-1.34,3-3h-6ZM13.5,3c-.83,0-1.5.67-1.5,1.5v.51c0,.64-.4,1.2-1,1.41-2.92,1.03-5,3.81-5,7.07v4.74c0,1-.33,1.97-.94,2.76h16.87c-.6-.79-.94-1.76-.94-2.76v-4.74c0-3.26-2.08-6.04-5-7.07-.6-.21-1-.78-1-1.41v-.51c0-.83-.67-1.5-1.5-1.5Z"/></g></svg>