<?xml version="1.0" encoding="UTF-8"?><svg id="_Слой_2" xmlns="http://www.w3.org/2000/svg" width="27.21" height="30" viewBox="0 0 27.21 30"><defs><style>.cls-1{fill:#6c6c6c;fill-rule:evenodd;}</style></defs><g id="sets"><path id="pack" class="cls-1" d="M17.79,0h-5.66C9.57,0,7.53,0,5.95.21c-1.64.22-2.96.68-4,1.73C.9,2.99.43,4.31.21,5.95,0,7.54,0,9.57,0,12.13v8.45c0,1.25.44,2.45,1.25,3.4.81.95,1.93,1.58,3.16,1.77.19,1.07.56,1.98,1.3,2.72.84.84,1.9,1.2,3.15,1.37,1.21.16,2.75.16,4.66.16h4.34c1.91,0,3.45,0,4.66-.16,1.26-.17,2.31-.53,3.15-1.37.84-.84,1.2-1.9,1.37-3.15.16-1.21.16-2.75.16-4.66v-7.13c0-1.91,0-3.45-.16-4.66-.17-1.26-.53-2.31-1.37-3.15-.74-.74-1.65-1.11-2.72-1.3-.19-1.23-.82-2.35-1.77-3.16C20.24.44,19.04,0,17.79,0ZM20.76,4.22c-.21-.62-.61-1.16-1.15-1.54-.53-.38-1.17-.58-1.83-.58h-5.58c-2.66,0-4.55,0-5.99.2-1.4.19-2.21.54-2.8,1.13-.59.59-.94,1.4-1.13,2.8-.19,1.44-.2,3.33-.2,5.99v8.37c0,.65.2,1.29.58,1.83s.92.93,1.54,1.15c-.03-.85-.03-1.81-.03-2.9v-7.13c0-1.91,0-3.45.16-4.66.17-1.26.53-2.31,1.37-3.15.84-.84,1.9-1.2,3.15-1.37,1.21-.16,2.75-.16,4.66-.16h4.34c1.08,0,2.04,0,2.9.03ZM7.2,7.2c.39-.39.93-.64,1.95-.78,1.05-.14,2.45-.14,4.45-.14h4.19c2,0,3.4,0,4.45.14,1.02.14,1.57.39,1.95.78.39.39.64.93.78,1.95.14,1.05.14,2.45.14,4.45v6.98c0,2,0,3.4-.14,4.45-.14,1.02-.39,1.57-.78,1.95-.39.39-.93.64-1.95.78-1.05.14-2.45.14-4.45.14h-4.19c-2,0-3.4,0-4.45-.14-1.02-.14-1.57-.39-1.95-.78-.39-.39-.64-.93-.78-1.95-.14-1.05-.14-2.45-.14-4.45v-6.98c0-2,0-3.4.14-4.45.14-1.02.39-1.57.78-1.95Z"/></g></svg>