<?xml version="1.0" encoding="UTF-8"?><svg id="_Слой_2" xmlns="http://www.w3.org/2000/svg" width="30" height="26.57" viewBox="0 0 30 26.57"><defs><style>.cls-1{fill:#ababab;}</style></defs><g id="sets"><path id="payments" class="cls-1" d="M21.17,26.57c-4.39,0-8.83-1.22-8.83-3.95v-10c0-2.73,4.43-3.95,8.83-3.95s8.83,1.22,8.83,3.95v10c0,2.73-4.43,3.95-8.83,3.95ZM14.92,20.54v2.08c.21.33,2.34,1.38,6.26,1.38s6.05-1.05,6.28-1.49v-1.98c-3.35,1.41-9.18,1.41-12.53,0ZM14.92,17.62c.21.33,2.34,1.38,6.26,1.38s5.99-1.02,6.27-1.47v-1.99c-3.36,1.4-9.17,1.41-12.52,0v2.08ZM14.94,12.66c.33.36,2.45,1.34,6.23,1.34s5.72-.9,6.19-1.38c-.47-.48-2.57-1.38-6.19-1.38s-5.83.95-6.23,1.42ZM8.83,23.9c-4.39,0-8.83-1.22-8.83-3.95V3.95C0,1.22,4.43,0,8.83,0s8.83,1.22,8.83,3.95v2c0,.71-.58,1.29-1.29,1.29-.41,0-.77-.19-1.01-.49-3.3,1.53-9.34,1.57-12.79.12v2.41c.21.34,2.16,1.26,5.61,1.37.21,0,.43.01.65.01.71,0,1.29.58,1.29,1.29s-.58,1.29-1.29,1.29c-.24,0-.49,0-.72-.01-1.9-.06-3.97-.38-5.53-1.03v2.42c.21.33,2.34,1.38,6.26,1.38.71,0,1.29.58,1.29,1.29s-.58,1.29-1.29,1.29c-2.29,0-4.58-.33-6.26-1.03v2.41c.21.33,2.34,1.38,6.26,1.38.71,0,1.29.58,1.29,1.29s-.58,1.29-1.29,1.29ZM2.6,3.99c.33.36,2.45,1.34,6.23,1.34s5.72-.9,6.19-1.38c-.48-.48-2.57-1.38-6.19-1.38s-5.83.95-6.23,1.42Z"/></g></svg>