<?xml version="1.0" encoding="UTF-8"?><svg id="_Слой_2" xmlns="http://www.w3.org/2000/svg" width="30" height="30.01" viewBox="0 0 30 30.01"><defs><style>.cls-1{fill:#fff;}</style></defs><g id="_Слой_2-2"><g id="sets"><path id="pen" class="cls-1" d="M28.54,1.46c-1.95-1.95-5.11-1.95-7.06,0L3.04,19.9c-.12.12-.22.28-.28.46L.06,28.46c-.3.91.57,1.79,1.48,1.48l8.1-2.7c.17-.06.33-.16.46-.28L28.54,8.52c1.94-1.94,1.94-5.11,0-7.05h0ZM3.03,26.97l1.36-4.07,2.72,2.72-4.07,1.36h0ZM9.27,24.47l-3.74-3.74,15.66-15.66,3.74,3.74-15.66,15.66ZM26.88,6.86l-.3.3-3.74-3.74.3-.3c1.03-1.03,2.71-1.03,3.74,0,1.03,1.03,1.03,2.71,0,3.74Z"/></g></g></svg>