<?xml version="1.0" encoding="UTF-8"?><svg id="_Слой_2" xmlns="http://www.w3.org/2000/svg" width="30" height="30" viewBox="0 0 30 30"><defs><style>.cls-1{fill:#fff;}.cls-1,.cls-2{fill-rule:evenodd;}.cls-2{fill:#2c2c2c;}</style></defs><g id="sets"><g id="radiobutton_active"><path class="cls-2" d="M9.12,0C2.81,0,0,2.81,0,9.12v11.75c0,6.31,2.81,9.12,9.12,9.12h11.75c6.31,0,9.12-2.81,9.12-9.12v-11.75c0-6.31-2.81-9.12-9.12-9.12h-11.75Z"/><path class="cls-1" d="M25.67,7.76c.72.69.72,1.8,0,2.49l-11.75,11.99c-.72.69-1.88.69-2.6,0l-7-6.98c-.72-.69-.72-1.8,0-2.49.72-.69,1.88-.69,2.6,0l5.71,5.74,10.45-10.75c.72-.69,1.88-.69,2.6,0Z"/></g></g></svg>