<?xml version="1.0" encoding="UTF-8"?><svg id="_Слой_2" xmlns="http://www.w3.org/2000/svg" width="30" height="28.5" viewBox="0 0 30 28.5"><defs><style>.cls-1{fill:#ababab;}</style></defs><g id="sets"><g id="sms"><path class="cls-1" d="M10.5,28.5c-.19,0-.39-.03-.57-.11-.55-.24-.93-.77-.93-1.39v-6h-4.5c-2.48,0-4.5-2.02-4.5-4.5V4.5C0,2.02,2.02,0,4.5,0h21c2.48,0,4.5,2.02,4.5,4.5v12c0,2.48-2.02,4.5-4.5,4.5h-6.88l-7.06,7.06c-.28.28-.66.44-1.06.44ZM4.5,3c-.82,0-1.5.68-1.5,1.5v12c0,.82.68,1.5,1.5,1.5h6c.82,0,1.5.66,1.5,1.5v3.88l4.94-4.94c.28-.28.66-.44,1.06-.44h7.5c.82,0,1.5-.68,1.5-1.5V4.5c0-.82-.68-1.5-1.5-1.5,0,0-21,0-21,0ZM21.02,12c-.82,0-1.5-.68-1.5-1.5s.66-1.5,1.5-1.5h0c.82,0,1.5.68,1.5,1.5s-.68,1.5-1.5,1.5ZM15.02,12c-.82,0-1.5-.68-1.5-1.5s.66-1.5,1.5-1.5h0c.82,0,1.5.68,1.5,1.5s-.68,1.5-1.5,1.5ZM9.02,12c-.82,0-1.5-.68-1.5-1.5s.66-1.5,1.5-1.5h0c.82,0,1.5.68,1.5,1.5s-.68,1.5-1.5,1.5Z"/></g></g></svg>