<?xml version="1.0" encoding="UTF-8"?><svg id="_Слой_2" xmlns="http://www.w3.org/2000/svg" width="30" height="30" viewBox="0 0 30 30"><defs><style>.cls-1{fill:#6c6c6c;}</style></defs><g id="sets"><g id="source"><path class="cls-1" d="M13.5,20.26c-.08,0-.16-.01-.24-.04-.4-.13-.62-.57-.48-.97l3-8.99c.13-.4.56-.62.96-.48.4.13.62.57.48.96l-3,8.99c-.11.32-.4.52-.72.52ZM9.01,18.76c-.18,0-.35-.06-.5-.18l-1.84-1.58c-.89-.77-1.42-1.23-1.42-1.99s.53-1.22,1.42-1.99l1.84-1.59c.32-.28.8-.24,1.08.08.27.32.24.8-.08,1.08l-1.84,1.58c-.42.36-.84.73-.9.87.06.07.48.44.89.8l1.84,1.59c.32.28.35.76.08,1.08-.15.18-.36.27-.58.27ZM20.99,18.76c-.21,0-.43-.09-.58-.27-.28-.32-.24-.8.08-1.08l1.84-1.58c.42-.36.84-.73.9-.87-.05-.07-.48-.44-.89-.8l-1.84-1.59c-.32-.28-.36-.76-.08-1.08.28-.32.76-.36,1.08-.08l1.84,1.58c.89.77,1.42,1.23,1.42,1.99s-.53,1.22-1.42,1.98l-1.85,1.59c-.14.12-.32.18-.5.18Z"/><path class="cls-1" d="M15,30c-6.91,0-10.38,0-12.69-2.31S0,21.91,0,15,0,4.62,2.31,2.31,8.09,0,15,0s10.38,0,12.69,2.31,2.31,5.78,2.31,12.69,0,10.38-2.31,12.69-5.78,2.31-12.69,2.31ZM15,1.53c-6.49,0-9.75,0-11.61,1.86s-1.86,5.12-1.86,11.61,0,9.75,1.86,11.61,5.12,1.86,11.61,1.86,9.75,0,11.61-1.86,1.86-5.12,1.86-11.61,0-9.75-1.86-11.61-5.12-1.86-11.61-1.86Z"/></g></g></svg>