<svg width="17" height="17" viewBox="0 0 17 17" fill="none" xmlns="http://www.w3.org/2000/svg">
<path d="M12.0254 13.8125C13.27 12.9883 14.186 11.7534 14.6135 10.3231C15.041 8.89278 14.9531 7.3578 14.3649 5.98571C13.7768 4.61362 12.7258 3.49144 11.3951 2.81479C10.0645 2.13813 8.53853 1.94992 7.08333 2.28296M12.0254 13.8125V11.3333M12.0254 13.8125H14.5208M4.95833 3.19883C3.71797 4.0261 2.80679 5.26194 2.38325 6.69144C1.95971 8.12094 2.0506 9.65368 2.64011 11.0231C3.22962 12.3925 4.28046 13.512 5.60989 14.1869C6.93932 14.8618 8.46325 15.0494 9.91666 14.717M4.95833 3.19883V5.66667M4.95833 3.19883H2.47916" stroke="#656565" stroke-width="1.5" stroke-linecap="round" stroke-linejoin="round"/>
</svg>
