<?xml version="1.0" encoding="UTF-8"?><svg id="_Слой_2" xmlns="http://www.w3.org/2000/svg" width="24" height="30" viewBox="0 0 24 30"><defs><style>.cls-1{fill:#ababab;fill-rule:evenodd;}</style></defs><g id="sets"><path id="user" class="cls-1" d="M12,3c-2.49,0-4.5,2.01-4.5,4.5s2.01,4.5,4.5,4.5,4.5-2.01,4.5-4.5-2.01-4.5-4.5-4.5ZM4.5,7.5C4.5,3.36,7.86,0,12,0s7.5,3.36,7.5,7.5-3.36,7.5-7.5,7.5-7.5-3.36-7.5-7.5ZM3.12,27h17.75c-.71-4.26-4.42-7.5-8.88-7.5s-8.16,3.24-8.88,7.5ZM0,28.5c0-6.63,5.37-12,12-12s12,5.37,12,12c0,.83-.67,1.5-1.5,1.5H1.5c-.83,0-1.5-.67-1.5-1.5Z"/></g></svg>