<?xml version="1.0" encoding="UTF-8"?><svg id="_Слой_2" xmlns="http://www.w3.org/2000/svg" width="30" height="29.98" viewBox="0 0 30 29.98"><defs><style>.cls-1{fill:#656565;}</style></defs><g id="sets"><g id="zoom"><path class="cls-1" d="M21.44,18.87h-1.36l-.47-.46c1.74-2.02,2.7-4.59,2.7-7.26,0-2.21-.65-4.36-1.88-6.19-1.23-1.83-2.97-3.27-5-4.1C13.38,0,11.14-.22,8.97.22c-2.16.43-4.15,1.5-5.71,3.05C1.7,4.83.64,6.82.21,8.98S0,13.37.86,15.41c.84,2.04,2.27,3.77,4.1,5s3.99,1.88,6.19,1.88c2.76,0,5.3-1.01,7.26-2.7l.46.47v1.36l8.57,8.56,2.56-2.56-8.56-8.57v.02ZM11.15,18.87c-4.26,0-7.72-3.44-7.72-7.72s3.46-7.72,7.72-7.72,7.72,3.44,7.72,7.72-3.44,7.72-7.72,7.72Z"/><rect class="cls-1" x="10.27" y="6.32" width="1.58" height="9.47"/><rect class="cls-1" x="6.32" y="10.26" width="9.47" height="1.58"/></g></g></svg>