<?xml version="1.0" encoding="UTF-8"?><svg id="_Слой_2" xmlns="http://www.w3.org/2000/svg" width="20" height="20" viewBox="0 0 20 20"><defs><style>.cls-1{fill:#fff;}.cls-2{fill:#fc3f1d;}</style></defs><g id="_Слой_1-2"><g id="icon_yandex"><path class="cls-2" d="M0,10C0,4.48,4.48,0,10,0s10,4.48,10,10-4.48,10-10,10S0,15.52,0,10Z"/><path class="cls-1" d="M11.28,5.67h-.92c-1.69,0-2.58.86-2.58,2.12,0,1.43.62,2.1,1.88,2.96l1.05.7-3,4.49h-2.24l2.69-4.01c-1.55-1.11-2.42-2.19-2.42-4.01,0-2.29,1.6-3.85,4.62-3.85h3v11.87h-2.07V5.67Z"/></g></g></svg>