<?xml version="1.0" encoding="UTF-8"?><svg id="_Слой_2" xmlns="http://www.w3.org/2000/svg" width="20" height="20" viewBox="0 0 20 20"><defs><style>.cls-1{fill:#f69c1c;}.cls-2{fill:#154684;}</style></defs><g id="_Слой_1-2"><circle class="cls-2" cx="10" cy="10" r="10"/><path class="cls-1" d="M9.74,5.4c1.25,0,2.43.55,3.29,1.42h0c0-.41.28-.73.67-.73h.1c.61,0,.73.58.73.76v6.46c-.04.42.44.64.71.37,1.04-1.06,2.28-5.48-.64-8.04-2.72-2.39-6.38-1.99-8.32-.65-2.07,1.43-3.39,4.58-2.1,7.54,1.4,3.23,5.41,4.19,7.79,3.23,1.21-.49,1.76,1.14.51,1.67-1.89.81-7.16.72-9.62-3.54-1.66-2.88-1.57-7.94,2.84-10.56,3.37-2.01,7.82-1.45,10.5,1.35,2.8,2.93,2.64,8.41-.1,10.54-1.24.97-3.08.03-3.07-1.39v-.46c-.88.85-2.02,1.36-3.27,1.36-2.47,0-4.65-2.18-4.65-4.64s2.18-4.69,4.65-4.69h0ZM12.85,9.92c-.09-1.81-1.44-2.9-3.06-2.9h-.06c-1.87,0-2.91,1.47-2.91,3.14,0,1.87,1.25,3.05,2.9,3.05,1.84,0,3.04-1.34,3.13-2.93v-.36Z"/></g></svg>