<svg width="150" height="33" viewBox="0 0 150 33" fill="none" xmlns="http://www.w3.org/2000/svg">
<path fill-rule="evenodd" clip-rule="evenodd" d="M7.41303 0.5L25.0907 5.99437C26.401 6.40161 27.1978 7.67188 26.9584 8.97185L26.1948 13.1187C25.8771 14.8439 24.7257 16.3231 23.0906 17.1066L22.6175 17.3333C23.8834 18.2318 24.4514 19.8176 23.9707 21.3021L21.3863 29.2824C20.612 31.6733 17.975 33.0227 15.471 32.3093L0 27.9015L7.41303 0.5ZM8.4698 2.3461L1.82312 26.9148L15.9003 30.9255C17.6136 31.4137 19.4178 30.4904 19.9476 28.8545L22.532 20.8742C22.86 19.8613 22.3742 18.7698 21.3844 18.2956L19.3127 17.3028L22.4169 15.8154C23.6255 15.2363 24.4765 14.143 24.7113 12.8678L25.4749 8.72097C25.5838 8.13007 25.2216 7.55268 24.626 7.36757L8.4698 2.3461Z" fill="#08C892"/>
<path d="M7.94141 25.9644V7.19741H19.9926V11.0471H13.4649V13.9343H18.9883V18.2651H13.4649V21.1524H19.9926V25.9644H7.94141Z" fill="#08C892"/>
<path fill-rule="evenodd" clip-rule="evenodd" d="M7.43928 6.7162H20.4947V11.5283H13.967V13.4531H19.4905V18.7464H13.967V20.6712H20.4947V26.4456H7.43928V6.7162ZM8.44354 7.67861V25.4832H19.4905V21.6336H12.9627V17.7839H18.4862V14.4155H12.9627V10.5659H19.4905V7.67861H8.44354Z" fill="#08C892"/>
<path d="M145.504 15.0847H149.466V19.6466C148.17 20.3876 146.829 20.7581 145.444 20.7581C143.867 20.7581 142.591 20.2769 141.617 19.3145C140.643 18.3521 140.156 17.1058 140.156 15.5756C140.156 14.0453 140.658 12.799 141.662 11.8366C142.667 10.8742 143.872 10.393 145.278 10.393C146.694 10.393 148.035 10.7635 149.3 11.5046L148.676 12.4343C147.441 11.6355 146.784 11.6634 145.579 11.6634C144.384 11.6634 143.41 12.0098 142.657 12.7028C141.903 13.3957 141.527 14.3389 141.527 15.5322C141.527 16.716 141.893 17.6784 142.627 18.4195C143.36 19.1509 144.359 19.5166 145.624 19.5166C146.568 19.5166 147.447 19.3049 148.26 18.8814V16.2685H145.504V15.0847Z" fill="#08C892"/>
<path d="M136.65 10.5375H138.021V20.6139H136.334L130.248 12.3131H130.218V20.6139H128.847V10.5375H130.534L136.605 18.8238H136.65V10.5375Z" fill="#08C892"/>
<path d="M126.073 10.5375V20.6139H124.702V10.5375H126.073Z" fill="#08C892"/>
<path d="M118.753 14.7817L123.438 20.6139H121.766L117.879 15.7056H117.804L116.132 17.3658V20.6139H114.761V10.5375H116.132V15.6912H116.177L121.254 10.5375H123.046L118.753 14.7817Z" fill="#08C892"/>
<path d="M103.545 11.8366C104.499 10.8742 105.77 10.393 107.356 10.393C108.943 10.393 110.214 10.8742 111.168 11.8366C112.122 12.799 112.614 14.0453 112.644 15.5756C112.614 17.1058 112.122 18.3521 111.168 19.3145C110.214 20.2769 108.943 20.7581 107.356 20.7581C105.77 20.7581 104.499 20.2769 103.545 19.3145C102.591 18.3521 102.099 17.1058 102.069 15.5756C102.099 14.0453 102.591 12.799 103.545 11.8366ZM103.44 15.5756C103.44 16.7208 103.786 17.6688 104.479 18.4195C105.182 19.1605 106.136 19.5311 107.341 19.5311C108.556 19.5311 109.516 19.1605 110.219 18.4195C110.922 17.6688 111.273 16.7208 111.273 15.5756C111.273 14.4303 110.922 13.4871 110.219 12.7461C109.516 11.9954 108.556 11.62 107.341 11.62C106.136 11.62 105.182 11.9954 104.479 12.7461C103.786 13.4871 103.44 14.4303 103.44 15.5756Z" fill="#08C892"/>
<path d="M91.4858 11.8366C92.4398 10.8742 93.7102 10.393 95.2969 10.393C96.8837 10.393 98.1541 10.8742 99.1081 11.8366C100.062 12.799 100.554 14.0453 100.584 15.5756C100.554 17.1058 100.062 18.3521 99.1081 19.3145C98.1541 20.2769 96.8837 20.7581 95.2969 20.7581C93.7102 20.7581 92.4398 20.2769 91.4858 19.3145C90.5317 18.3521 90.0396 17.1058 90.0095 15.5756C90.0396 14.0453 90.5317 12.799 91.4858 11.8366ZM91.3803 15.5756C91.3803 16.7208 91.7268 17.6688 92.4197 18.4195C93.1227 19.1605 94.0768 19.5311 95.2819 19.5311C96.497 19.5311 97.4561 19.1605 98.1591 18.4195C98.8621 17.6688 99.2136 16.7208 99.2136 15.5756C99.2136 14.4303 98.8621 13.4871 98.1591 12.7461C97.4561 11.9954 96.497 11.62 95.2819 11.62C94.0768 11.62 93.1227 11.9954 92.4197 12.7461C91.7268 13.4871 91.3803 14.4303 91.3803 15.5756Z" fill="#08C892"/>
<path d="M88.5429 17.7844C88.5429 19.6708 87.2524 20.6139 84.6714 20.6139H80.3481V10.5375H84.5811C85.6556 10.5375 86.4842 10.7733 87.0666 11.2448C87.6591 11.7164 87.9554 12.3516 87.9554 13.1504C87.9554 14.2091 87.4734 14.9453 86.5093 15.3592V15.4025C87.865 15.8163 88.5429 16.6103 88.5429 17.7844ZM81.7189 19.3868H84.5359C85.51 19.3868 86.1979 19.2425 86.5996 18.9538C87.0114 18.665 87.2173 18.256 87.2173 17.7267C87.2173 16.6295 86.3285 16.081 84.5509 16.081H81.7189V19.3868ZM81.7189 14.8972H84.2195C85.1133 14.8972 85.741 14.7528 86.1025 14.4641C86.4641 14.1754 86.6448 13.7904 86.6448 13.3092C86.6448 12.8184 86.449 12.4382 86.0573 12.1688C85.6757 11.8993 85.1485 11.7645 84.4756 11.7645H81.7189V14.8972Z" fill="#08C892"/>
<path d="M78.7463 10.5375V11.7645H75.1159V20.6139H73.7451V11.7645H70.1147V10.5375H78.7463Z" fill="#08C892"/>
<path d="M67.1511 10.5375H68.5219V20.6139H66.8348L60.7489 12.3131H60.7188V20.6139H59.348V10.5375H61.0351L67.1059 18.8238H67.1511V10.5375Z" fill="#08C892"/>
<path d="M57.1833 11.7645H51.2632V14.9549H56.641V16.182H51.2632V19.3868H57.1833V20.6139H49.8924V10.5375H57.1833V11.7645Z" fill="#08C892"/>
<path d="M47.0251 10.5375H48.5014L44.163 20.6139H42.5361L38.1977 10.5375H39.689L43.3194 19.2714H43.3797L47.0251 10.5375Z" fill="#08C892"/>
<path d="M37.4189 11.7645H31.4988V14.9549H36.8766V16.182H31.4988V19.3868H37.4189V20.6139H30.1279V10.5375H37.4189V11.7645Z" fill="#08C892"/>
<path fill-rule="evenodd" clip-rule="evenodd" d="M145.002 14.6035H149.968V19.9197L149.723 20.0598C148.357 20.8412 146.928 21.2394 145.444 21.2394C143.75 21.2394 142.338 20.7177 141.257 19.6496C140.179 18.5845 139.654 17.2118 139.654 15.5756C139.654 13.935 140.197 12.5605 141.307 11.4963C142.405 10.4447 143.737 9.91177 145.278 9.91177C146.791 9.91177 148.221 10.309 149.562 11.094L150 11.3506L148.821 13.1085L148.395 12.8332C147.817 12.4593 147.405 12.2977 147.015 12.2206C146.629 12.1441 146.244 12.1443 145.677 12.1445L145.579 12.1446C144.493 12.1446 143.65 12.4555 143.004 13.0499C142.369 13.6348 142.029 14.4426 142.029 15.5322C142.029 16.6134 142.36 17.4502 142.99 18.0876C143.61 18.7054 144.468 19.0354 145.624 19.0354C146.385 19.0354 147.095 18.8855 147.758 18.586V16.7497H145.002V14.6035ZM148.26 16.2685V18.8814C147.447 19.3049 146.568 19.5166 145.624 19.5166C144.359 19.5166 143.36 19.1509 142.627 18.4195C141.893 17.6784 141.527 16.716 141.527 15.5322C141.527 14.3389 141.903 13.3957 142.657 12.7028C143.41 12.0098 144.384 11.6634 145.579 11.6634L145.697 11.6633C146.733 11.6625 147.368 11.662 148.385 12.2549C148.479 12.3095 148.576 12.3692 148.676 12.4343L149.3 11.5046C149.155 11.4199 149.01 11.3402 148.863 11.2652C147.727 10.6837 146.532 10.393 145.278 10.393C143.872 10.393 142.667 10.8742 141.662 11.8366C140.658 12.799 140.156 14.0453 140.156 15.5756C140.156 17.1058 140.643 18.3521 141.617 19.3145C142.591 20.2769 143.867 20.7581 145.444 20.7581C146.829 20.7581 148.17 20.3876 149.466 19.6466V15.0847H145.504V16.2685H148.26ZM136.148 10.0563H138.523V21.0951H136.073L130.72 13.7939V21.0951H128.345V10.0563H130.795L136.148 17.3627V10.0563ZM136.65 18.8238H136.605L130.534 10.5375H128.847V20.6139H130.218V12.3131H130.248L136.334 20.6139H138.021V10.5375H136.65V18.8238ZM126.575 10.0563V21.0951H121.516L117.8 16.4021L116.634 17.5601V21.0951H114.259V10.0563H116.634V14.5263L121.037 10.0563H126.575ZM124.2 10.0883V20.7737L119.416 14.8179L124.2 10.0883ZM118.753 14.7817L123.046 10.5375H121.254L116.177 15.6912H116.132V10.5375H114.761V20.6139H116.132V17.3658L117.804 15.7056H117.879L121.766 20.6139H123.438L118.753 14.7817ZM113.146 15.5756L113.146 15.5846C113.114 17.2154 112.585 18.5831 111.532 19.646C110.469 20.7182 109.059 21.2394 107.356 21.2394C105.654 21.2394 104.244 20.7182 103.181 19.646C102.128 18.5831 101.599 17.2154 101.567 15.5846L101.567 15.5756L101.567 15.5665C101.599 13.9357 102.128 12.568 103.181 11.5052C104.244 10.4329 105.654 9.91177 107.356 9.91177C109.059 9.91177 110.469 10.4329 111.532 11.5052C112.585 12.568 113.114 13.9357 113.146 15.5665L113.146 15.5756ZM109.847 13.0698L109.845 13.0675C109.252 12.4346 108.438 12.1013 107.341 12.1013C106.256 12.1013 105.446 12.4337 104.853 13.0675C104.255 13.707 103.942 14.5299 103.942 15.5756C103.942 16.6199 104.254 17.4483 104.853 18.0981C105.446 18.7216 106.255 19.0499 107.341 19.0499C108.44 19.0499 109.254 18.7203 109.846 18.097C110.454 17.4468 110.771 16.6188 110.771 15.5756C110.771 14.5316 110.454 13.7095 109.847 13.0698ZM110.219 18.4195C109.516 19.1605 108.556 19.5311 107.341 19.5311C106.136 19.5311 105.182 19.1605 104.479 18.4195C103.786 17.6688 103.44 16.7208 103.44 15.5756C103.44 14.4303 103.786 13.4871 104.479 12.7461C105.182 11.9954 106.136 11.62 107.341 11.62C108.556 11.62 109.516 11.9954 110.219 12.7461C110.922 13.4871 111.273 14.4303 111.273 15.5756C111.273 16.7208 110.922 17.6688 110.219 18.4195ZM101.087 15.5756L101.086 15.5846C101.054 17.2154 100.526 18.5831 99.4722 19.646C98.4092 20.7182 96.9994 21.2394 95.2969 21.2394C93.5945 21.2394 92.1847 20.7182 91.1217 19.646C90.0681 18.5831 89.5396 17.2154 89.5074 15.5846L89.5073 15.5756L89.5074 15.5665C89.5396 13.9357 90.0681 12.568 91.1217 11.5052C92.1847 10.4329 93.5945 9.91177 95.2969 9.91177C96.9994 9.91177 98.4092 10.4329 99.4722 11.5052C100.526 12.568 101.054 13.9357 101.086 15.5665L101.087 15.5756ZM97.7876 13.0698L97.7854 13.0675C97.1927 12.4346 96.3787 12.1013 95.2819 12.1013C94.1967 12.1013 93.3871 12.4336 92.7937 13.0672C92.1957 13.7067 91.8824 14.5297 91.8824 15.5756C91.8824 16.6199 92.1949 17.4484 92.7936 18.0982C93.3862 18.7216 94.1958 19.0499 95.2819 19.0499C96.3801 19.0499 97.1945 18.7203 97.7864 18.097C98.3948 17.4468 98.7114 16.6188 98.7114 15.5756C98.7114 14.5316 98.3944 13.7095 97.7876 13.0698ZM98.1591 18.4195C97.4561 19.1605 96.497 19.5311 95.2819 19.5311C94.0768 19.5311 93.1227 19.1605 92.4197 18.4195C91.7268 17.6688 91.3803 16.7208 91.3803 15.5756C91.3803 14.4303 91.7268 13.4871 92.4197 12.7461C93.1227 11.9954 94.0768 11.62 95.2819 11.62C96.497 11.62 97.4561 11.9954 98.1591 12.7461C98.8621 13.4871 99.2136 14.4303 99.2136 15.5756C99.2136 16.7208 98.8621 17.6688 98.1591 18.4195ZM79.846 21.0951V10.0563H84.5811C85.7254 10.0563 86.6852 10.3069 87.3891 10.876C88.1057 11.4471 88.4575 12.2226 88.4575 13.1504C88.4575 13.7504 88.3204 14.2924 88.0192 14.7524C87.8846 14.958 87.7215 15.1406 87.5327 15.301C87.8843 15.4911 88.1841 15.7236 88.4231 16.0036C88.8459 16.4988 89.045 17.1032 89.045 17.7844C89.045 18.842 88.6762 19.7069 87.8795 20.2892C87.1086 20.8526 86.0115 21.0951 84.6714 21.0951H79.846ZM87.0795 15.6171C88.0551 16.066 88.5429 16.7884 88.5429 17.7844C88.5429 19.6708 87.2524 20.6139 84.6714 20.6139H80.3481V10.5375H84.5811C85.6556 10.5375 86.4842 10.7733 87.0666 11.2448C87.6591 11.7164 87.9554 12.3516 87.9554 13.1504C87.9554 13.9967 87.6473 14.637 87.0312 15.0712C86.8811 15.177 86.7127 15.2706 86.5261 15.3519C86.5205 15.3543 86.5149 15.3567 86.5093 15.3592V15.4025C86.5172 15.4049 86.525 15.4073 86.5329 15.4097C86.7295 15.4708 86.9117 15.5399 87.0795 15.6171ZM86.3031 18.5654C86.5737 18.3757 86.7151 18.1173 86.7151 17.7267C86.7151 17.3255 86.566 17.0742 86.2788 16.897C85.9537 16.6963 85.4019 16.5622 84.5509 16.5622H82.221V18.9056H84.5359C85.4881 18.9056 86.0339 18.7589 86.2984 18.5688L86.3031 18.5654ZM81.7189 19.3868V16.081H84.5509C86.3285 16.081 87.2173 16.6295 87.2173 17.7267C87.2173 18.256 87.0114 18.665 86.5996 18.9538C86.1979 19.2425 85.51 19.3868 84.5359 19.3868H81.7189ZM85.7595 12.5562C85.4936 12.3684 85.0848 12.2458 84.4756 12.2458H82.221V14.416H84.2195C85.0876 14.416 85.5614 14.2699 85.7811 14.0944C86.0196 13.9039 86.1427 13.6585 86.1427 13.3092C86.1427 12.962 86.0154 12.7323 85.7645 12.5597L85.7595 12.5562ZM84.2195 14.8972C85.1133 14.8972 85.741 14.7528 86.1025 14.4641C86.4641 14.1754 86.6448 13.7904 86.6448 13.3092C86.6448 12.8184 86.449 12.4382 86.0573 12.1688C85.6757 11.8993 85.1485 11.7645 84.4756 11.7645H81.7189V14.8972H84.2195ZM79.2485 10.0563V12.2458H75.6181V21.0951H73.243V12.2458H69.6126V10.0563H79.2485ZM73.7451 11.7645V20.6139H75.1159V11.7645H78.7463V10.5375H70.1147V11.7645H73.7451ZM66.649 10.0563H69.0241V21.0951H66.5739L61.2209 13.7939V21.0951H58.8458V10.0563H61.2961L66.649 17.3627V10.0563ZM67.1511 10.5375H68.5219V20.6139H66.8348L60.7489 12.3131H60.7188V20.6139H59.348V10.5375H61.0351L67.1059 18.8238H67.1511V10.5375ZM57.6855 12.2458H51.7653V14.4737H57.1432V16.6632H51.7653V18.9056H57.6855V21.0951H49.3902V10.0563H57.6855V12.2458ZM51.2632 19.3868V16.182H56.641V14.9549H51.2632V11.7645H57.1833V10.5375H49.8924V20.6139H57.1833V19.3868H51.2632ZM46.6852 10.0563H49.2518L44.499 21.0951H42.2001L37.921 11.1567V12.2458H32.0009V14.4737H37.3787V16.6632H32.0009V18.9056H37.921V21.0951H29.6258V10.0563H40.0295L43.3504 18.0457L46.6852 10.0563ZM43.3797 19.2714H43.3194L39.689 10.5375H38.1977L42.5361 20.6139H44.163L48.5014 10.5375H47.0251L43.3797 19.2714ZM31.4988 19.3868V16.182H36.8766V14.9549H31.4988V11.7645H37.4189V10.5375H30.1279V20.6139H37.4189V19.3868H31.4988ZM90.0095 15.5756C90.0396 17.1058 90.5317 18.3521 91.4858 19.3145C92.4398 20.2769 93.7102 20.7581 95.2969 20.7581C96.8837 20.7581 98.1541 20.2769 99.1081 19.3145C100.062 18.3521 100.554 17.1058 100.584 15.5756C100.554 14.0453 100.062 12.799 99.1081 11.8366C98.1541 10.8742 96.8837 10.393 95.2969 10.393C93.7102 10.393 92.4398 10.8742 91.4858 11.8366C90.5317 12.799 90.0396 14.0453 90.0095 15.5756ZM103.545 11.8366C104.499 10.8742 105.77 10.393 107.356 10.393C108.943 10.393 110.214 10.8742 111.168 11.8366C112.122 12.799 112.614 14.0453 112.644 15.5756C112.614 17.1058 112.122 18.3521 111.168 19.3145C110.214 20.2769 108.943 20.7581 107.356 20.7581C105.77 20.7581 104.499 20.2769 103.545 19.3145C102.591 18.3521 102.099 17.1058 102.069 15.5756C102.099 14.0453 102.591 12.799 103.545 11.8366ZM126.073 20.6139H124.702V10.5375H126.073V20.6139Z" fill="#08C892"/>
<path d="M131.083 24.2781V25.191H128.787V29.4223H127.614V24.2781H131.083Z" fill="#2C2C2C"/>
<path d="M124.224 28.8613L125.654 24.2781H126.909L124.798 30.2068C124.749 30.3336 124.686 30.4715 124.608 30.6204C124.53 30.7694 124.428 30.9105 124.301 31.0436C124.178 31.1799 124.024 31.2892 123.839 31.3716C123.654 31.4572 123.431 31.5 123.168 31.5C123.064 31.5 122.964 31.4905 122.866 31.4715C122.772 31.4556 122.683 31.4382 122.599 31.4192L122.594 30.5444C122.626 30.5475 122.665 30.5507 122.711 30.5539C122.759 30.5571 122.798 30.5586 122.827 30.5586C123.022 30.5586 123.184 30.5349 123.314 30.4873C123.444 30.4429 123.549 30.37 123.63 30.2686C123.714 30.1672 123.786 30.0309 123.844 29.8597L124.224 28.8613ZM123.416 24.2781L124.666 28.1292L124.876 29.3368L124.063 29.5412L122.151 24.2781H123.416Z" fill="#2C2C2C"/>
<path d="M120.531 24.2781V25.191H117.963V24.2781H120.531ZM121.451 24.2781V29.4223H120.278V24.2781H121.451ZM117.676 24.2781H118.833L118.692 26.8217C118.673 27.1989 118.634 27.5317 118.576 27.8201C118.521 28.1054 118.446 28.351 118.352 28.5571C118.258 28.7599 118.143 28.9247 118.006 29.0515C117.87 29.1783 117.711 29.2718 117.53 29.332C117.348 29.3922 117.144 29.4223 116.917 29.4223H116.552L116.547 28.481L116.732 28.4667C116.852 28.4572 116.956 28.4271 117.043 28.3764C117.131 28.3225 117.205 28.2464 117.267 28.1482C117.332 28.0499 117.384 27.9231 117.423 27.7678C117.465 27.6125 117.497 27.4287 117.52 27.2163C117.546 27.004 117.565 26.7567 117.578 26.4746L117.676 24.2781Z" fill="#2C2C2C"/>
<path d="M113.939 28.6046C114.131 28.6046 114.303 28.5681 114.455 28.4952C114.611 28.4192 114.736 28.3146 114.83 28.1815C114.927 28.0483 114.981 27.8946 114.99 27.7203H116.095C116.088 28.0531 115.988 28.3558 115.793 28.6284C115.598 28.901 115.341 29.1181 115.019 29.2797C114.698 29.4382 114.343 29.5174 113.954 29.5174C113.552 29.5174 113.202 29.4509 112.903 29.3177C112.605 29.1815 112.357 28.9945 112.159 28.7567C111.961 28.519 111.812 28.2448 111.711 27.9342C111.614 27.6236 111.565 27.2908 111.565 26.9358V26.7694C111.565 26.4144 111.614 26.0816 111.711 25.771C111.812 25.4572 111.961 25.1815 112.159 24.9437C112.357 24.706 112.605 24.5206 112.903 24.3875C113.202 24.2512 113.55 24.183 113.949 24.183C114.371 24.183 114.741 24.2655 115.058 24.4303C115.376 24.5919 115.626 24.8185 115.808 25.1101C115.992 25.3986 116.088 25.7345 116.095 26.1181H114.99C114.981 25.9279 114.932 25.7567 114.844 25.6046C114.76 25.4493 114.64 25.3257 114.484 25.2338C114.332 25.1418 114.149 25.0959 113.935 25.0959C113.698 25.0959 113.502 25.1434 113.346 25.2385C113.19 25.3304 113.069 25.4572 112.981 25.6189C112.894 25.7773 112.83 25.9564 112.791 26.1561C112.756 26.3526 112.738 26.5571 112.738 26.7694V26.9358C112.738 27.1482 112.756 27.3542 112.791 27.5539C112.827 27.7536 112.889 27.9326 112.976 28.0911C113.067 28.2464 113.19 28.3716 113.346 28.4667C113.502 28.5586 113.7 28.6046 113.939 28.6046Z" fill="#2C2C2C"/>
<path d="M108.501 28.8613L109.931 24.2781H111.186L109.075 30.2068C109.026 30.3336 108.963 30.4715 108.885 30.6204C108.807 30.7694 108.705 30.9105 108.578 31.0436C108.455 31.1799 108.301 31.2892 108.116 31.3716C107.931 31.4572 107.708 31.5 107.445 31.5C107.341 31.5 107.241 31.4905 107.143 31.4715C107.049 31.4556 106.96 31.4382 106.876 31.4192L106.871 30.5444C106.903 30.5475 106.942 30.5507 106.988 30.5539C107.036 30.5571 107.075 30.5586 107.104 30.5586C107.299 30.5586 107.461 30.5349 107.591 30.4873C107.721 30.4429 107.826 30.37 107.907 30.2686C107.991 30.1672 108.063 30.0309 108.121 29.8597L108.501 28.8613ZM107.693 24.2781L108.943 28.1292L109.153 29.3368L108.34 29.5412L106.428 24.2781H107.693Z" fill="#2C2C2C"/>
<path d="M105.947 26.0087V26.9216H103.373V26.0087H105.947Z" fill="#2C2C2C"/>
<path d="M102.682 24.2781V25.1149H99.7149V24.2781H102.682ZM100.571 23.0182H101.743V28.0008C101.743 28.1593 101.766 28.2813 101.812 28.3669C101.86 28.4493 101.927 28.5048 102.011 28.5333C102.095 28.5618 102.194 28.5761 102.308 28.5761C102.389 28.5761 102.467 28.5713 102.541 28.5618C102.616 28.5523 102.676 28.5428 102.721 28.5333L102.726 29.4081C102.629 29.4366 102.515 29.462 102.386 29.4842C102.259 29.5063 102.113 29.5174 101.948 29.5174C101.679 29.5174 101.44 29.4715 101.233 29.3796C101.025 29.2845 100.863 29.1307 100.746 28.9184C100.629 28.706 100.571 28.4239 100.571 28.0721V23.0182Z" fill="#2C2C2C"/>
<path d="M95.8863 25.3764V29.4223H94.7139V24.2781H95.8182L95.8863 25.3764ZM95.6771 26.6601L95.2976 26.6553C95.3009 26.2908 95.3528 25.9564 95.4533 25.6521C95.5571 25.3479 95.6998 25.0864 95.8814 24.8677C96.0663 24.649 96.2868 24.481 96.543 24.3637C96.7992 24.2433 97.0846 24.183 97.3992 24.183C97.6522 24.183 97.8808 24.2179 98.0852 24.2876C98.2927 24.3542 98.4695 24.4635 98.6154 24.6157C98.7646 24.7678 98.8781 24.9659 98.956 25.21C99.0338 25.4509 99.0727 25.7472 99.0727 26.099V29.4223H97.8954V26.0943C97.8954 25.8471 97.8581 25.6521 97.7835 25.5095C97.7122 25.3637 97.6068 25.2607 97.4673 25.2005C97.3311 25.1371 97.1608 25.1054 96.9565 25.1054C96.7554 25.1054 96.5754 25.1466 96.4165 25.229C96.2576 25.3114 96.123 25.4239 96.0128 25.5666C95.9057 25.7092 95.823 25.874 95.7646 26.061C95.7063 26.248 95.6771 26.4477 95.6771 26.6601Z" fill="#2C2C2C"/>
<path d="M91.7026 29.5174C91.3134 29.5174 90.9615 29.4556 90.6469 29.332C90.3355 29.2052 90.0696 29.0293 89.8491 28.8043C89.6318 28.5792 89.4648 28.3146 89.348 28.0103C89.2312 27.706 89.1729 27.378 89.1729 27.0261V26.836C89.1729 26.4334 89.2329 26.0689 89.3529 25.7425C89.4729 25.416 89.6399 25.1371 89.8539 24.9057C90.068 24.6712 90.321 24.4921 90.6128 24.3685C90.9047 24.2448 91.2209 24.183 91.5615 24.183C91.9377 24.183 92.2669 24.2448 92.549 24.3685C92.8312 24.4921 93.0647 24.6664 93.2496 24.8914C93.4377 25.1133 93.5771 25.378 93.6679 25.6854C93.762 25.9929 93.809 26.332 93.809 26.7029V27.1926H89.742V26.37H92.6512V26.2797C92.6447 26.0737 92.6025 25.8803 92.5247 25.6997C92.4501 25.519 92.335 25.3732 92.1793 25.2623C92.0236 25.1513 91.8161 25.0959 91.5566 25.0959C91.362 25.0959 91.1885 25.1371 91.0361 25.2195C90.8869 25.2987 90.762 25.4144 90.6615 25.5666C90.561 25.7187 90.4831 25.9025 90.428 26.1181C90.3761 26.3304 90.3501 26.5697 90.3501 26.836V27.0261C90.3501 27.2512 90.381 27.4604 90.4426 27.6537C90.5074 27.8439 90.6015 28.0103 90.7247 28.1529C90.848 28.2956 90.9972 28.4081 91.1723 28.4905C91.3474 28.5697 91.5469 28.6094 91.7707 28.6094C92.0528 28.6094 92.3042 28.5539 92.5247 28.4429C92.7452 28.332 92.9366 28.1751 93.0987 27.9723L93.7166 28.5571C93.6031 28.7187 93.4555 28.874 93.2739 29.023C93.0923 29.1688 92.8701 29.2876 92.6074 29.3796C92.3479 29.4715 92.0463 29.5174 91.7026 29.5174Z" fill="#2C2C2C"/>
<path d="M86.2199 28.5143L87.5091 24.2781H88.7253L86.8961 29.4223H86.1372L86.2199 28.5143ZM85.2324 24.2781L86.5459 28.5333L86.6091 29.4223H85.8502L84.0113 24.2781H85.2324Z" fill="#2C2C2C"/>
<path d="M81.5546 29.5174C81.1654 29.5174 80.8135 29.4556 80.4989 29.332C80.1876 29.2052 79.9217 29.0293 79.7011 28.8043C79.4838 28.5792 79.3168 28.3146 79.2001 28.0103C79.0833 27.706 79.0249 27.378 79.0249 27.0261V26.836C79.0249 26.4334 79.0849 26.0689 79.2049 25.7425C79.3249 25.416 79.4919 25.1371 79.706 24.9057C79.92 24.6712 80.173 24.4921 80.4649 24.3685C80.7568 24.2448 81.073 24.183 81.4135 24.183C81.7897 24.183 82.1189 24.2448 82.4011 24.3685C82.6832 24.4921 82.9167 24.6664 83.1016 24.8914C83.2897 25.1133 83.4292 25.378 83.52 25.6854C83.614 25.9929 83.6611 26.332 83.6611 26.7029V27.1926H79.5941V26.37H82.5032V26.2797C82.4968 26.0737 82.4546 25.8803 82.3768 25.6997C82.3022 25.519 82.187 25.3732 82.0314 25.2623C81.8757 25.1513 81.6681 25.0959 81.4087 25.0959C81.2141 25.0959 81.0406 25.1371 80.8881 25.2195C80.7389 25.2987 80.6141 25.4144 80.5135 25.5666C80.413 25.7187 80.3352 25.9025 80.28 26.1181C80.2281 26.3304 80.2022 26.5697 80.2022 26.836V27.0261C80.2022 27.2512 80.233 27.4604 80.2946 27.6537C80.3595 27.8439 80.4535 28.0103 80.5768 28.1529C80.7 28.2956 80.8492 28.4081 81.0243 28.4905C81.1995 28.5697 81.3989 28.6094 81.6227 28.6094C81.9049 28.6094 82.1562 28.5539 82.3768 28.4429C82.5973 28.332 82.7886 28.1751 82.9508 27.9723L83.5686 28.5571C83.4551 28.7187 83.3076 28.874 83.1259 29.023C82.9443 29.1688 82.7222 29.2876 82.4595 29.3796C82.2 29.4715 81.8984 29.5174 81.5546 29.5174Z" fill="#2C2C2C"/>
<path d="M72.3261 25.267V31.4002H71.1537V24.2781H72.2337L72.3261 25.267ZM75.7558 26.8027V26.9025C75.7558 27.2765 75.7104 27.6236 75.6196 27.9437C75.532 28.2607 75.4007 28.538 75.2255 28.7758C75.0536 29.0103 74.8412 29.1926 74.5882 29.3225C74.3353 29.4525 74.0434 29.5174 73.7126 29.5174C73.385 29.5174 73.098 29.4588 72.8515 29.3415C72.6083 29.2211 72.4023 29.0515 72.2337 28.8328C72.065 28.6141 71.9288 28.3574 71.825 28.0626C71.7245 27.7647 71.6531 27.4382 71.611 27.0832V26.6981C71.6531 26.3209 71.7245 25.9786 71.825 25.6712C71.9288 25.3637 72.065 25.099 72.2337 24.8772C72.4023 24.6553 72.6083 24.4842 72.8515 24.3637C73.0947 24.2433 73.3785 24.183 73.7028 24.183C74.0336 24.183 74.3272 24.2464 74.5834 24.3732C74.8396 24.4968 75.0553 24.6743 75.2304 24.9057C75.4055 25.1339 75.5369 25.4097 75.6244 25.733C75.712 26.0531 75.7558 26.4097 75.7558 26.8027ZM74.5834 26.9025V26.8027C74.5834 26.565 74.5607 26.3447 74.5153 26.1418C74.4699 25.9358 74.3985 25.7552 74.3012 25.5998C74.2039 25.4445 74.0791 25.3241 73.9266 25.2385C73.7774 25.1498 73.5974 25.1054 73.3866 25.1054C73.1791 25.1054 73.0007 25.1403 72.8515 25.21C72.7023 25.2765 72.5775 25.37 72.4769 25.4905C72.3764 25.6109 72.2985 25.752 72.2434 25.9136C72.1883 26.0721 72.1493 26.2448 72.1266 26.4319V27.3542C72.1656 27.5824 72.2321 27.7916 72.3261 27.9818C72.4202 28.1719 72.5531 28.3241 72.725 28.4382C72.9002 28.5491 73.1239 28.6046 73.3964 28.6046C73.6072 28.6046 73.7872 28.5602 73.9363 28.4715C74.0855 28.3827 74.2072 28.2607 74.3012 28.1054C74.3985 27.9469 74.4699 27.7647 74.5153 27.5586C74.5607 27.3526 74.5834 27.1339 74.5834 26.9025Z" fill="#2C2C2C"/>
<path d="M65.2722 26.9073V26.7979C65.2722 26.4271 65.3273 26.0832 65.4376 25.7662C65.5478 25.4461 65.7067 25.1688 65.9143 24.9342C66.1251 24.6965 66.3813 24.5127 66.683 24.3827C66.9878 24.2496 67.3316 24.183 67.7143 24.183C68.1002 24.183 68.444 24.2496 68.7456 24.3827C69.0505 24.5127 69.3083 24.6965 69.5191 24.9342C69.7299 25.1688 69.8905 25.4461 70.0007 25.7662C70.111 26.0832 70.1661 26.4271 70.1661 26.7979V26.9073C70.1661 27.2781 70.111 27.622 70.0007 27.939C69.8905 28.2559 69.7299 28.5333 69.5191 28.771C69.3083 29.0055 69.0521 29.1894 68.7505 29.3225C68.4489 29.4525 68.1067 29.5174 67.724 29.5174C67.3381 29.5174 66.9927 29.4525 66.6878 29.3225C66.3862 29.1894 66.13 29.0055 65.9192 28.771C65.7084 28.5333 65.5478 28.2559 65.4376 27.939C65.3273 27.622 65.2722 27.2781 65.2722 26.9073ZM66.4446 26.7979V26.9073C66.4446 27.1387 66.4689 27.3574 66.5175 27.5634C66.5662 27.7694 66.6424 27.9501 66.7462 28.1054C66.85 28.2607 66.9829 28.3827 67.1451 28.4715C67.3073 28.5602 67.5002 28.6046 67.724 28.6046C67.9413 28.6046 68.1294 28.5602 68.2883 28.4715C68.4505 28.3827 68.5835 28.2607 68.6872 28.1054C68.791 27.9501 68.8672 27.7694 68.9159 27.5634C68.9678 27.3574 68.9937 27.1387 68.9937 26.9073V26.7979C68.9937 26.5697 68.9678 26.3542 68.9159 26.1513C68.8672 25.9453 68.7894 25.7631 68.6824 25.6046C68.5786 25.4461 68.4456 25.3225 68.2835 25.2338C68.1245 25.1418 67.9348 25.0959 67.7143 25.0959C67.4937 25.0959 67.3024 25.1418 67.1402 25.2338C66.9813 25.3225 66.85 25.4461 66.7462 25.6046C66.6424 25.7631 66.5662 25.9453 66.5175 26.1513C66.4689 26.3542 66.4446 26.5697 66.4446 26.7979Z" fill="#2C2C2C"/>
<path d="M63.1706 24.2781V29.4223H61.9933V24.2781H63.1706ZM64.8976 24.2781V25.1815H60.2955V24.2781H64.8976Z" fill="#2C2C2C"/>
<path d="M58.4031 28.3906V25.9374C58.4031 25.7536 58.369 25.5951 58.3009 25.462C58.2328 25.3288 58.129 25.2258 57.9896 25.1529C57.8534 25.08 57.6815 25.0436 57.4739 25.0436C57.2826 25.0436 57.1172 25.0753 56.9777 25.1387C56.8382 25.2021 56.7296 25.2876 56.6518 25.3954C56.5739 25.5032 56.535 25.6252 56.535 25.7615H55.3675C55.3675 25.5586 55.4177 25.3621 55.5183 25.1719C55.6188 24.9818 55.7647 24.8122 55.9561 24.6632C56.1474 24.5143 56.3761 24.397 56.642 24.3114C56.908 24.2258 57.2063 24.183 57.5372 24.183C57.9328 24.183 58.2831 24.248 58.5879 24.378C58.896 24.5079 59.1377 24.7044 59.3128 24.9675C59.4912 25.2274 59.5804 25.5539 59.5804 25.9469V28.2338C59.5804 28.4683 59.5966 28.6791 59.629 28.8661C59.6647 29.0499 59.715 29.21 59.7798 29.3463V29.4223H58.5782C58.5231 29.2987 58.4793 29.1418 58.4469 28.9517C58.4177 28.7583 58.4031 28.5713 58.4031 28.3906ZM58.5734 26.294L58.5831 27.0024H57.7415C57.5242 27.0024 57.3328 27.023 57.1674 27.0642C57.002 27.1022 56.8642 27.1593 56.7539 27.2353C56.6437 27.3114 56.5609 27.4033 56.5058 27.5111C56.4507 27.6189 56.4231 27.7409 56.4231 27.8772C56.4231 28.0135 56.4555 28.1387 56.5204 28.2528C56.5853 28.3637 56.6793 28.4509 56.8026 28.5143C56.9291 28.5777 57.0815 28.6094 57.2599 28.6094C57.4999 28.6094 57.709 28.5618 57.8874 28.4667C58.069 28.3685 58.2117 28.2496 58.3155 28.1101C58.4193 27.9675 58.4744 27.8328 58.4809 27.706L58.8604 28.2147C58.8215 28.3447 58.755 28.4842 58.6609 28.6331C58.5669 28.7821 58.4436 28.9247 58.2912 29.061C58.142 29.1941 57.962 29.3035 57.7512 29.3891C57.5436 29.4746 57.3036 29.5174 57.0312 29.5174C56.6874 29.5174 56.381 29.4509 56.1118 29.3177C55.8426 29.1815 55.6318 28.9992 55.4793 28.771C55.3269 28.5396 55.2507 28.2781 55.2507 27.9865C55.2507 27.7139 55.3026 27.4731 55.4064 27.2639C55.5134 27.0515 55.6691 26.874 55.8734 26.7314C56.081 26.5887 56.3339 26.481 56.6323 26.4081C56.9307 26.332 57.2712 26.294 57.6539 26.294H58.5734Z" fill="#2C2C2C"/>
<path d="M54.7545 24.2781V25.191H52.4583V29.4223H51.2859V24.2781H54.7545Z" fill="#2C2C2C"/>
<path d="M48.2308 29.5174C47.8416 29.5174 47.4897 29.4556 47.1752 29.332C46.8638 29.2052 46.5979 29.0293 46.3773 28.8043C46.16 28.5792 45.993 28.3146 45.8763 28.0103C45.7595 27.706 45.7011 27.378 45.7011 27.0261V26.836C45.7011 26.4334 45.7611 26.0689 45.8811 25.7425C46.0011 25.416 46.1681 25.1371 46.3822 24.9057C46.5962 24.6712 46.8492 24.4921 47.1411 24.3685C47.433 24.2448 47.7492 24.183 48.0897 24.183C48.4659 24.183 48.7951 24.2448 49.0773 24.3685C49.3594 24.4921 49.593 24.6664 49.7778 24.8914C49.9659 25.1133 50.1054 25.378 50.1962 25.6854C50.2902 25.9929 50.3373 26.332 50.3373 26.7029V27.1926H46.2703V26.37H49.1794V26.2797C49.173 26.0737 49.1308 25.8803 49.053 25.6997C48.9784 25.519 48.8632 25.3732 48.7076 25.2623C48.5519 25.1513 48.3443 25.0959 48.0849 25.0959C47.8903 25.0959 47.7168 25.1371 47.5643 25.2195C47.4151 25.2987 47.2903 25.4144 47.1897 25.5666C47.0892 25.7187 47.0114 25.9025 46.9562 26.1181C46.9043 26.3304 46.8784 26.5697 46.8784 26.836V27.0261C46.8784 27.2512 46.9092 27.4604 46.9708 27.6537C47.0357 27.8439 47.1297 28.0103 47.253 28.1529C47.3762 28.2956 47.5254 28.4081 47.7006 28.4905C47.8757 28.5697 48.0751 28.6094 48.2989 28.6094C48.5811 28.6094 48.8324 28.5539 49.053 28.4429C49.2735 28.332 49.4648 28.1751 49.627 27.9723L50.2448 28.5571C50.1313 28.7187 49.9838 28.874 49.8021 29.023C49.6205 29.1688 49.3984 29.2876 49.1357 29.3796C48.8762 29.4715 48.5746 29.5174 48.2308 29.5174Z" fill="#2C2C2C"/>
<path d="M41.4834 25.267V31.4002H40.3109V24.2781H41.3909L41.4834 25.267ZM44.913 26.8027V26.9025C44.913 27.2765 44.8676 27.6236 44.7768 27.9437C44.6892 28.2607 44.5579 28.538 44.3828 28.7758C44.2109 29.0103 43.9984 29.1926 43.7455 29.3225C43.4925 29.4525 43.2006 29.5174 42.8698 29.5174C42.5423 29.5174 42.2552 29.4588 42.0087 29.3415C41.7655 29.2211 41.5596 29.0515 41.3909 28.8328C41.2223 28.6141 41.0861 28.3574 40.9823 28.0626C40.8817 27.7647 40.8104 27.4382 40.7682 27.0832V26.6981C40.8104 26.3209 40.8817 25.9786 40.9823 25.6712C41.0861 25.3637 41.2223 25.099 41.3909 24.8772C41.5596 24.6553 41.7655 24.4842 42.0087 24.3637C42.252 24.2433 42.5358 24.183 42.8601 24.183C43.1909 24.183 43.4844 24.2464 43.7406 24.3732C43.9968 24.4968 44.2125 24.6743 44.3876 24.9057C44.5628 25.1339 44.6941 25.4097 44.7817 25.733C44.8692 26.0531 44.913 26.4097 44.913 26.8027ZM43.7406 26.9025V26.8027C43.7406 26.565 43.7179 26.3447 43.6725 26.1418C43.6271 25.9358 43.5558 25.7552 43.4585 25.5998C43.3612 25.4445 43.2363 25.3241 43.0839 25.2385C42.9347 25.1498 42.7547 25.1054 42.5439 25.1054C42.3363 25.1054 42.1579 25.1403 42.0087 25.21C41.8596 25.2765 41.7347 25.37 41.6342 25.4905C41.5336 25.6109 41.4558 25.752 41.4007 25.9136C41.3455 26.0721 41.3066 26.2448 41.2839 26.4319V27.3542C41.3228 27.5824 41.3893 27.7916 41.4834 27.9818C41.5774 28.1719 41.7104 28.3241 41.8823 28.4382C42.0574 28.5491 42.2812 28.6046 42.5536 28.6046C42.7644 28.6046 42.9444 28.5602 43.0936 28.4715C43.2428 28.3827 43.3644 28.2607 43.4585 28.1054C43.5558 27.9469 43.6271 27.7647 43.6725 27.5586C43.7179 27.3526 43.7406 27.1339 43.7406 26.9025Z" fill="#2C2C2C"/>
<path d="M39.625 24.2781V25.191H37.3288V29.4223H36.1564V24.2781H39.625Z" fill="#2C2C2C"/>
<path d="M32.4786 23.4223L30.3624 29.4223H29.083L31.7489 22.5H32.5662L32.4786 23.4223ZM34.2494 29.4223L32.1284 23.4223L32.0359 22.5H32.8581L35.5337 29.4223H34.2494ZM34.1473 26.855V27.8011H30.2943V26.855H34.1473Z" fill="#2C2C2C"/>
</svg>
